<?xml version="1.0" ?>
<!DOCTYPE svg  PUBLIC '-//W3C//DTD SVG 1.1//EN'  'http://www.w3.org/Graphics/SVG/1.1/DTD/svg11.dtd'>
<!-- Uploaded to: SVG Repo, www.svgrepo.com, Generator: SVG Repo Mixer Tools -->
<svg width="800px" height="800px" viewBox="0 0 32 32" enable-background="new 0 0 32 32" version="1.1" xml:space="preserve" xmlns="http://www.w3.org/2000/svg" xmlns:xlink="http://www.w3.org/1999/xlink">
<g id="Layer_2"/>
<g id="Layer_3"/>
<g id="Layer_4"/>
<g id="Layer_5"/>
<g id="Layer_6"/>
<g id="Layer_7"/>
<g id="Layer_8"/>
<g id="Layer_9"/>
<g id="Layer_10"/>
<g id="Layer_11">
<g>
<path d="M20.3291,18.8896c-0.1909,0-0.3838-0.0547-0.5542-0.168l-5.6602-3.7793    c-0.4595-0.3066-0.583-0.9277-0.2764-1.3877c0.3066-0.459,0.9282-0.5811,1.3867-0.2764l5.6602,3.7793    c0.4595,0.3066,0.583,0.9277,0.2764,1.3877C20.9688,18.7334,20.6519,18.8896,20.3291,18.8896z" fill="#00ACBA"/>
</g>
<g>
<path d="M7.959,23.2402c-0.1616,0-0.3257-0.0391-0.478-0.1221c-0.4849-0.2646-0.6636-0.8721-0.3989-1.3564    l4.0801-7.4805c0.2646-0.4844,0.8711-0.6641,1.3569-0.3994c0.4849,0.2646,0.6636,0.8721,0.3989,1.3564l-4.0801,7.4805    C8.6563,23.0518,8.313,23.2402,7.959,23.2402z" fill="#00ACBA"/>
</g>
<g>
<path d="M22.959,18.2402c-0.1616,0-0.3257-0.0391-0.478-0.1221c-0.4849-0.2646-0.6636-0.8721-0.3989-1.3564    l4.0801-7.4805c0.2646-0.4844,0.8711-0.6631,1.3569-0.3994c0.4849,0.2646,0.6636,0.8721,0.3989,1.3564l-4.0801,7.4805    C23.6563,18.0518,23.313,18.2402,22.959,18.2402z" fill="#00ACBA"/>
</g>
<g>
<path d="M30,31H2c-0.5522,0-1-0.4473-1-1V2c0-0.5527,0.4478-1,1-1s1,0.4473,1,1v27h27c0.5522,0,1,0.4473,1,1    S30.5522,31,30,31z" fill="#0181B0"/>
</g>
<g>
<path d="M7,27c-1.6543,0-3-1.3457-3-3s1.3457-3,3-3s3,1.3457,3,3S8.6543,27,7,27z M7,23c-0.5513,0-1,0.4482-1,1    s0.4487,1,1,1s1-0.4482,1-1S7.5513,23,7,23z" fill="#F5D803"/>
</g>
<g>
<path d="M13,16c-1.6543,0-3-1.3457-3-3s1.3457-3,3-3s3,1.3457,3,3S14.6543,16,13,16z M13,12    c-0.5513,0-1,0.4482-1,1s0.4487,1,1,1s1-0.4482,1-1S13.5513,12,13,12z" fill="#F5D803"/>
</g>
<g>
<path d="M22,22c-1.6543,0-3-1.3457-3-3s1.3457-3,3-3s3,1.3457,3,3S23.6543,22,22,22z M22,18    c-0.5513,0-1,0.4482-1,1s0.4487,1,1,1s1-0.4482,1-1S22.5513,18,22,18z" fill="#F5D803"/>
</g>
<g>
<path d="M28,11c-1.6543,0-3-1.3457-3-3s1.3457-3,3-3s3,1.3457,3,3S29.6543,11,28,11z M28,7c-0.5513,0-1,0.4482-1,1    s0.4487,1,1,1s1-0.4482,1-1S28.5513,7,28,7z" fill="#F5D803"/>
</g>
</g>
<g id="Layer_12"/>
<g id="Layer_13"/>
<g id="Layer_14"/>
<g id="Layer_15"/>
<g id="Layer_16"/>
<g id="Layer_17"/>
<g id="Layer_18"/>
<g id="Layer_19"/>
<g id="Layer_20"/>
<g id="Layer_21"/>
<g id="Layer_22"/>
<g id="Layer_23"/>
<g id="Layer_24"/>
<g id="Layer_25"/>
<g id="Layer_26"/>
</svg>