<?xml version="1.0" encoding="iso-8859-1"?>
<!-- Uploaded to: SVG Repo, www.svgrepo.com, Generator: SVG Repo Mixer Tools -->
<svg xmlns="http://www.w3.org/2000/svg" xmlns:xlink="http://www.w3.org/1999/xlink" version="1.1" id="Layer_1"  viewBox="0 0 480 480" xml:space="preserve" width="512" height="512">
<g id="_x35_0._Nucleus_1_">
	<g id="XMLID_98_">
		<g>
			<g>
				<path style="fill:#F2D59F;" d="M429.261,93.16c0,3.37-0.7,6.57-1.96,9.47c-3.66,8.48-12.1,14.41-21.93,14.41      c-13.19,0-23.88-10.69-23.88-23.88c0-1.61,0.16-3.18,0.46-4.7c2.18-10.94,11.84-19.19,23.42-19.19      C418.561,69.27,429.261,79.97,429.261,93.16z"/>
			</g>
			<g>
				<path style="fill:#E6B263;" d="M315.041,428.2c4.97,4.36,8.11,10.78,8.11,17.92c0,13.19-10.7,23.88-23.89,23.88      c-7.91,0-14.93-3.84-19.27-9.77c-2.91-3.95-4.62-8.83-4.62-14.11c0-13.19,10.7-23.89,23.89-23.89      C305.311,422.23,310.831,424.47,315.041,428.2z"/>
			</g>
			<g>
				<path style="fill:#FF7124;" d="M250.671,201.58c20.61,0,37.32,16.71,37.32,37.33c0,20.61-16.71,37.32-37.32,37.32      c-20.61,0-37.32-16.71-37.32-37.32C213.351,218.29,230.061,201.58,250.671,201.58z"/>
			</g>
			<g>
				<path style="fill:#8ECAC1;" d="M46.901,153.46c13.19,0,23.89,10.69,23.89,23.88c0,10.53-6.81,19.46-16.25,22.64      c-2.4,0.81-4.97,1.25-7.64,1.25c-13.19,0-23.88-10.69-23.88-23.89c0-12.33,9.34-22.47,21.33-23.75      C45.191,153.51,46.041,153.46,46.901,153.46z"/>
			</g>
		</g>
		<g>
			<g>
				<path style="fill:#5E2A41;" d="M250.672,477.81c-37.381,0-72.26-31.012-95.695-85.083      c-11.319-26.115-19.458-56.025-24.193-88.901c-3.027-21.045-4.562-42.886-4.562-64.915c0-22.037,1.535-43.88,4.562-64.924      c4.736-32.882,12.876-62.792,24.193-88.902C178.411,31.012,213.291,0,250.672,0c37.38,0,72.26,31.012,95.695,85.084      c11.319,26.126,19.459,56.04,24.192,88.911c3.027,21.045,4.562,42.885,4.562,64.915s-1.535,43.87-4.562,64.914      c-4.734,32.878-12.874,62.789-24.192,88.903c-6.797,15.689-14.624,29.614-23.263,41.389l-16.125-11.831      c7.755-10.57,14.833-23.191,21.037-37.51c10.463-24.142,18.329-53.119,22.748-83.8c2.892-20.103,4.358-40.984,4.358-62.065      c0-21.08-1.466-41.962-4.358-62.066c-4.418-30.675-12.284-59.656-22.748-83.808C307.899,46.621,279.708,20,250.672,20      c-29.037,0-57.228,26.621-77.345,73.037c-10.462,24.137-18.328,53.114-22.748,83.799c-2.892,20.102-4.358,40.987-4.358,62.074      c0,21.081,1.466,41.962,4.358,62.066c4.418,30.679,12.284,59.656,22.748,83.797c20.117,46.416,48.308,73.037,77.345,73.037      c8.297,0,16.589-2.16,24.645-6.42l9.35,17.68C273.699,474.87,262.262,477.81,250.672,477.81z"/>
			</g>
			<g>
				<path style="fill:#5E2A41;" d="M254.388,375.193l-7.433-18.567c18.814-7.532,37.635-16.706,55.938-27.268      c18.243-10.521,35.598-22.235,51.583-34.817c24.36-19.161,45.523-40.459,61.204-61.591      c30.127-40.62,39.08-78.342,24.561-103.491c-4.209-7.287-10.334-13.454-18.205-18.328l10.529-17.004      c10.708,6.631,19.117,15.153,24.995,25.331c18.692,32.377,9.281,78.085-25.818,125.408      c-16.963,22.861-38.798,44.862-64.899,65.393c-16.734,13.17-34.888,25.425-53.957,36.423      C293.765,357.717,274.083,367.31,254.388,375.193z"/>
			</g>
			<g>
				<path style="fill:#5E2A41;" d="M138.395,400.294c-45.126,0.001-78.906-14.722-94.614-41.936      C25.087,325.979,34.497,280.27,69.6,232.952c16.989-22.896,38.825-44.9,64.9-65.403c16.68-13.127,34.829-25.38,53.94-36.418      c19.054-11.005,38.742-20.599,58.515-28.514c30.851-12.334,60.825-20.237,89.093-23.491c16.791-1.938,32.592-2.143,46.964-0.609      l-2.122,19.887c-12.907-1.377-27.224-1.178-42.552,0.591c-26.136,3.008-55.166,10.682-83.954,22.191      c-18.887,7.561-37.71,16.734-55.941,27.264c-18.288,10.563-35.641,22.277-51.577,34.819      c-24.335,19.134-45.497,40.434-61.204,61.601c-30.131,40.616-39.083,78.337-24.56,103.491      c14.518,25.152,51.661,36.25,101.903,30.456c26.145-3.01,55.171-10.684,83.943-22.191l7.427,18.569      c-30.83,12.331-60.801,20.234-89.079,23.49C155.953,399.762,146.965,400.294,138.395,400.294z"/>
			</g>
			<g>
				<path style="fill:#5E2A41;" d="M362.948,400.294c-8.574,0-17.557-0.531-26.903-1.61c-27.716-3.19-57.075-10.851-87.287-22.774      h-0.013l-1.799-0.715c-19.673-7.871-39.356-17.464-58.503-28.513c-19.116-11.031-37.267-23.287-53.95-36.426      c-26.097-20.527-47.931-42.528-64.893-65.387c-10.203-13.771-18.349-27.519-24.214-40.865l18.31-8.047      c5.267,11.982,12.658,24.431,21.971,37c15.675,21.126,36.839,42.423,61.197,61.584c15.937,12.552,33.288,24.265,51.576,34.818      c17.999,10.387,36.475,19.422,54.934,26.864l1.01,0.402c28.788,11.509,57.817,19.183,83.951,22.191      c50.244,5.798,87.388-5.303,101.906-30.455c14.523-25.155,5.571-62.877-24.56-103.493      c-15.68-21.131-36.844-42.428-61.202-61.588c-15.929-12.546-33.284-24.263-51.587-34.829      c-18.301-10.561-37.121-19.735-55.937-27.267c-28.771-11.506-57.801-19.18-83.947-22.189      c-50.246-5.803-87.388,5.304-101.905,30.463c-4.141,7.176-6.415,15.423-6.759,24.51l-19.985-0.757      c0.468-12.371,3.638-23.726,9.421-33.749c18.69-32.39,62.982-47.091,121.518-40.336c28.28,3.255,58.254,11.158,89.087,23.489      c19.699,7.886,39.381,17.479,58.504,28.514c19.131,11.044,37.286,23.302,53.959,36.435      c26.096,20.526,47.931,42.527,64.894,65.387c35.103,47.319,44.514,93.028,25.819,125.409      C441.856,385.57,408.071,400.294,362.948,400.294z"/>
			</g>
			<g>
				<path style="fill:#5E2A41;" d="M250.672,286.23c-26.092,0-47.32-21.228-47.32-47.32c0-26.098,21.228-47.33,47.32-47.33      s47.32,21.232,47.32,47.33C297.991,265.002,276.764,286.23,250.672,286.23z M250.672,211.58c-15.064,0-27.32,12.26-27.32,27.33      c0,15.064,12.256,27.32,27.32,27.32c15.064,0,27.32-12.256,27.32-27.32C277.991,223.84,265.736,211.58,250.672,211.58z"/>
			</g>
			<g>
				<path style="fill:#5E2A41;" d="M46.902,211.23c-18.682,0-33.88-15.203-33.88-33.89c0-17.366,13.013-31.851,30.268-33.693      l0.113-0.012c1.236-0.118,2.38-0.175,3.499-0.175c18.687,0,33.89,15.198,33.89,33.88c0,14.564-9.266,27.471-23.058,32.117      C54.25,210.633,50.603,211.23,46.902,211.23z M45.359,163.539c-7.038,0.779-12.338,6.702-12.338,13.801      c0,7.659,6.227,13.89,13.88,13.89c1.522,0,3.017-0.244,4.441-0.725c5.654-1.905,9.448-7.195,9.448-13.166      c0-7.653-6.231-13.88-13.89-13.88C46.438,163.46,45.933,163.486,45.359,163.539z"/>
			</g>
			<g>
				<path style="fill:#5E2A41;" d="M405.371,127.04c-18.682,0-33.88-15.199-33.88-33.88c0-2.219,0.218-4.452,0.649-6.635l0.004-0.02      c3.145-15.781,17.119-27.235,33.227-27.235c18.687,0,33.89,15.203,33.89,33.89c0,4.669-0.938,9.196-2.788,13.455      C431.121,119.014,418.909,127.04,405.371,127.04z M391.761,90.401c-0.179,0.91-0.27,1.838-0.27,2.759      c0,7.654,6.227,13.88,13.88,13.88c5.549,0,10.554-3.287,12.749-8.373c0.76-1.751,1.141-3.596,1.141-5.507      c0-7.659-6.231-13.89-13.89-13.89C398.775,79.27,393.053,83.95,391.761,90.401z"/>
			</g>
			<g>
				<path style="fill:#5E2A41;" d="M299.261,480c-10.766,0-20.986-5.183-27.34-13.864c-4.279-5.808-6.55-12.738-6.55-20.016      c0-18.687,15.203-33.89,33.89-33.89c8.269,0,16.22,3.008,22.394,8.469c7.307,6.419,11.497,15.684,11.497,25.421      C333.152,464.802,317.948,480,299.261,480z M299.261,432.23c-7.659,0-13.89,6.231-13.89,13.89c0,2.979,0.924,5.807,2.671,8.179      c2.658,3.632,6.741,5.701,11.219,5.701c7.659,0,13.89-6.227,13.89-13.88c0-3.988-1.715-7.78-4.705-10.403l-0.037-0.032      C305.895,433.457,302.646,432.23,299.261,432.23z"/>
			</g>
		</g>
	</g>
</g>















</svg>